<?xml version="1.0" standalone="no"?>
<!DOCTYPE svg PUBLIC "-//W3C//DTD SVG 1.1//EN" "http://www.w3.org/Graphics/SVG/1.1/DTD/svg11.dtd" >
<svg xmlns="http://www.w3.org/2000/svg">
<metadata>Generated by IcoMoon</metadata>
<defs>
<font id="icomoon" horiz-adv-x="1024">
<font-face units-per-em="1024" ascent="960" descent="-64" />
<missing-glyph horiz-adv-x="1024" />
<glyph unicode="&#x20;" horiz-adv-x="512" d="" />
<glyph unicode="&#xe900;" glyph-name="uniE900" d="M384 616c-22.091 0-40-17.909-40-40s17.909-40 40-40v0c22.091 0 40 17.909 40 40s-17.909 40-40 40v0zM296 576c0 48.601 39.399 88 88 88s88-39.399 88-88v0c0-48.601-39.399-88-88-88s-88 39.399-88 88v0zM640 360c-22.091 0-40-17.909-40-40s17.909-40 40-40v0c22.091 0 40 17.909 40 40s-17.909 40-40 40v0zM552 320c0 48.601 39.399 88 88 88s88-39.399 88-88v0c0-48.601-39.399-88-88-88s-88 39.399-88 88v0zM699.648 601.696c4.516 4.37 7.319 10.485 7.319 17.255 0 13.255-10.745 24-24 24-6.778 0-12.9-2.81-17.264-7.328l-341.351-341.287c-4.164-4.311-6.729-10.188-6.729-16.665 0-13.255 10.745-24 24-24 6.485 0 12.369 2.572 16.688 6.751l-0.007-0.006 341.344 341.312z" />
<glyph unicode="&#xe901;" glyph-name="1" d="M512 642.656c13.255 0 24-10.745 24-24v0-146.656h146.656c13.255 0 24-10.745 24-24s-10.745-24-24-24v0h-146.656v-146.656c0-13.255-10.745-24-24-24s-24 10.745-24 24v0 146.656h-146.656c-13.255 0-24 10.745-24 24s10.745 24 24 24v0h146.656v146.656c0 13.255 10.745 24 24 24v0z" />
<glyph unicode="&#xe902;" glyph-name="11" d="M317.344 448c0 13.255 10.745 24 24 24v0h341.312c13.255 0 24-10.745 24-24s-10.745-24-24-24v0h-341.312c-13.255 0-24 10.745-24 24v0z" />
<glyph unicode="&#xe903;" glyph-name="Back" d="M395.648 591.040c4.516 4.37 7.319 10.485 7.319 17.255 0 13.255-10.745 24-24 24-6.778 0-12.9-2.81-17.264-7.328l-106.663-106.663c-4.337-4.342-7.019-10.338-7.019-16.96s2.682-12.618 7.019-16.96v0l106.656-106.688c4.274-3.991 10.032-6.441 16.361-6.441 13.255 0 24 10.745 24 24 0 6.33-2.45 12.087-6.454 16.375l0.013-0.014-65.664 65.728h315.392c45.658 0 82.672-37.014 82.672-82.672s-37.014-82.672-82.672-82.672v0h-133.344c-13.255 0-24-10.745-24-24s10.745-24 24-24v0h133.344c72.168 0 130.672 58.504 130.672 130.672s-58.504 130.672-130.672 130.672v0h-315.424l65.696 65.696z" />
<glyph unicode="&#xe904;" glyph-name="close" horiz-adv-x="1045" d="M282.517 746.624l-45.355-45.163 252.309-253.461-252.309-253.461 45.355-45.163 252.096 253.269 252.096-253.269 45.355 45.163-252.288 253.44 252.288 253.483-45.355 45.163-252.096-253.248-252.096 253.227z" />
<glyph unicode="&#xe905;" glyph-name="down" d="M388.352 518.304c4.344 4.346 10.346 7.035 16.976 7.035s12.632-2.688 16.976-7.035l89.696-89.696 89.696 89.696c4.274 3.991 10.032 6.441 16.361 6.441 13.255 0 24-10.745 24-24 0-6.33-2.45-12.087-6.454-16.375l0.013 0.014-106.656-106.688c-4.342-4.337-10.338-7.019-16.96-7.019s-12.618 2.682-16.96 7.019v0l-106.688 106.656c-4.346 4.344-7.035 10.346-7.035 16.976s2.688 12.632 7.035 16.976v0z" />
<glyph unicode="&#xe906;" glyph-name="Draw" d="M595.648 657.696c5.857 5.681 13.855 9.183 22.671 9.183 17.991 0 32.576-14.585 32.576-32.576 0-8.824-3.508-16.828-9.206-22.695l-261.976-261.944-61.408-15.36 15.36 61.44 261.984 261.952zM675.648 691.616c-14.581 14.581-34.725 23.6-56.976 23.6s-42.395-9.019-56.976-23.6l-266.656-266.656c-2.995-2.983-5.206-6.751-6.299-10.969l-0.037-0.167-26.656-106.656c-0.459-1.754-0.722-3.767-0.722-5.842 0-13.255 10.745-24 24-24 2.075 0 4.088 0.263 6.008 0.758l-0.167-0.036 106.656 26.656c4.385 1.13 8.153 3.341 11.135 6.335l266.689 266.657c14.572 14.58 23.584 34.717 23.584 56.96s-9.012 42.38-23.585 56.96v0zM272 232c-13.255 0-24-10.745-24-24s10.745-24 24-24v0h480c13.255 0 24 10.745 24 24s-10.745 24-24 24v0h-480z" />
<glyph unicode="&#xe907;" glyph-name="Erase" d="M336 744c-30.928 0-56-25.072-56-56v0-480c0-30.912 25.088-56 56-56h352c30.928 0 56 25.072 56 56v0 384c0 83.947-68.053 152-152 152v0h-256zM696 568v24c0 57.438-46.562 104-104 104v0h-256c-4.418 0-8-3.582-8-8v0-120h368zM328 520h368v-312c0-4.418-3.582-8-8-8v0h-352c-4.418 0-8 3.582-8 8v0 312z" />
<glyph unicode="&#xe908;" glyph-name="Hide" d="M228.352 731.648c4.344 4.346 10.346 7.035 16.976 7.035s12.632-2.688 16.976-7.035l533.344-533.344c4.164-4.311 6.729-10.188 6.729-16.665 0-13.255-10.745-24-24-24-6.485 0-12.369 2.572-16.688 6.751l0.007-0.006-112.224 112.192c-38.56-22.88-84.64-39.232-137.472-39.232-94.080 0-166.56 51.712-214.176 100.576-25.597 26.415-48.314 55.883-67.481 87.73l-1.223 2.19c-0.858 1.35-2.409 4.070-3.917 6.818l-0.755 1.502-0.288 0.512-0.064 0.16-0.032 0.064 21.28 11.104-21.344 11.072 0.064 0.128 0.64 1.152 1.728 3.2c10.848 18.743 21.433 34.594 32.9 49.74l-0.868-1.196c22.448 29.919 47.45 55.998 75.246 78.798l0.786 0.626-106.144 106.176c-4.337 4.342-7.019 10.338-7.019 16.96s2.682 12.618 7.019 16.96v0zM224.032 459.072c-1.705-3.214-2.707-7.026-2.707-11.072s1.001-7.858 2.77-11.203l-0.063 0.131 21.312 11.072-21.344 11.072zM566.592 359.456l47.648-47.648c-30.176-16.064-64.32-26.464-102.24-26.464-75.616 0-136.448 41.6-179.776 86.080-21.897 22.589-41.468 47.666-58.182 74.696l-1.082 1.88 1.024 1.696c5.12 8.32 12.768 20.096 22.848 33.504 17.376 23.136 41.568 50.624 71.84 74.176l54.752-54.784c-9.742-15.538-15.52-34.422-15.52-54.656 0-57.438 46.562-104 104-104 20.234 0 39.118 5.778 55.092 15.774l-0.436-0.255zM530.816 395.232l-71.584 71.584c-2.071-5.611-3.269-12.092-3.269-18.853 0-30.928 25.072-56 56-56 6.761 0 13.241 1.198 19.242 3.393l-0.389-0.124zM512 610.656c-8.16 0-16.128-0.48-23.872-1.376-0.84-0.104-1.813-0.164-2.8-0.164-13.257 0-24.004 10.747-24.004 24.004 0 12.27 9.207 22.39 21.089 23.829l0.115 0.011c9.6 1.12 19.424 1.696 29.472 1.696 94.080 0 166.56-51.712 214.144-100.576 25.608-26.416 48.335-55.884 67.513-87.731l1.223-2.189c0.857-1.347 2.408-4.068 3.915-6.815l0.757-1.505 0.288-0.512 0.064-0.16 0.032-0.064-21.28-11.104 21.312-11.072-0.032-0.064-0.096-0.128-0.192-0.416-0.768-1.408c-5.324-9.573-9.839-16.983-14.58-24.232l0.948 1.544c-13.63-20.918-27.393-39.045-42.319-56.13l0.495 0.578c-4.39-4.679-10.613-7.593-17.516-7.593-13.255 0-24 10.745-24 24 0 5.748 2.021 11.024 5.391 15.157l-0.034-0.043c15.427 17.697 29.844 37.235 42.614 57.9l1.098 1.908c-17.782 28.912-37.343 53.99-59.342 76.69l0.11-0.114c-43.328 44.48-104.16 86.080-179.776 86.080zM799.968 436.928c1.705 3.214 2.707 7.026 2.707 11.072s-1.001 7.858-2.77 11.203l0.063-0.131-21.312-11.072 21.312-11.072z" />
<glyph unicode="&#xe909;" glyph-name="Left" d="M582.304 324.352c4.346 4.344 7.035 10.346 7.035 16.976s-2.688 12.632-7.035 16.976l-89.696 89.696 89.696 89.696c3.991 4.274 6.441 10.032 6.441 16.361 0 13.255-10.745 24-24 24-6.33 0-12.087-2.45-16.375-6.454l0.014 0.013-106.688-106.656c-4.337-4.342-7.019-10.338-7.019-16.96s2.682-12.618 7.019-16.96v0l106.656-106.688c4.344-4.346 10.346-7.035 16.976-7.035s12.632 2.688 16.976 7.035v0z" />
<glyph unicode="&#xe90a;" glyph-name="Pan" d="M528.96 731.648c-4.342 4.337-10.338 7.019-16.96 7.019s-12.618-2.682-16.96-7.019v0l-80-80c-4.173-4.312-6.745-10.197-6.745-16.681 0-13.255 10.745-24 24-24 6.477 0 12.354 2.566 16.672 6.736l39.033 39.033v-115.392c0-13.255 10.745-24 24-24s24 10.745 24 24v0 115.392l39.040-39.040c4.274-3.991 10.032-6.441 16.361-6.441 13.255 0 24 10.745 24 24 0 6.33-2.45 12.087-6.454 16.375l0.013-0.014-80 80zM681.696 544.96c4.342 4.337 10.338 7.019 16.96 7.019s12.618-2.682 16.96-7.019v0l80-80c4.337-4.342 7.019-10.338 7.019-16.96s-2.682-12.618-7.019-16.96v0l-80-80c-4.393-4.706-10.634-7.639-17.559-7.639-13.255 0-24 10.745-24 24 0 6.925 2.933 13.165 7.625 17.546l0.014 0.013 39.040 39.040h-115.392c-13.255 0-24 10.745-24 24s10.745 24 24 24v0h115.392l-39.040 39.040c-4.337 4.342-7.019 10.338-7.019 16.96s2.682 12.618 7.019 16.96v0zM342.304 511.040c3.991 4.274 6.441 10.032 6.441 16.361 0 13.255-10.745 24-24 24-6.33 0-12.087-2.45-16.375-6.454l0.014 0.013-80-80c-4.337-4.342-7.019-10.338-7.019-16.96s2.682-12.618 7.019-16.96v0l80-80c4.274-3.991 10.032-6.441 16.361-6.441 13.255 0 24 10.745 24 24 0 6.33-2.45 12.087-6.454 16.375l0.013-0.014-39.040 39.040h115.392c13.255 0 24 10.745 24 24s-10.745 24-24 24v0h-115.392l39.040 39.040zM536 354.656c0 13.255-10.745 24-24 24s-24-10.745-24-24v0-115.392l-39.040 39.040c-4.393 4.706-10.634 7.639-17.559 7.639-13.255 0-24-10.745-24-24 0-6.925 2.933-13.165 7.625-17.546l0.014-0.013 80-80c4.342-4.337 10.338-7.019 16.96-7.019s12.618 2.682 16.96 7.019v0l80 80c4.706 4.393 7.639 10.634 7.639 17.559 0 13.255-10.745 24-24 24-6.925 0-13.165-2.933-17.546-7.625l-0.013-0.014-39.040-39.040v115.392z" />
<glyph unicode="&#xe90b;" glyph-name="Question" d="M512 690.656c-134.015 0-242.656-108.641-242.656-242.656s108.641-242.656 242.656-242.656v0c134.015 0 242.656 108.641 242.656 242.656s-108.641 242.656-242.656 242.656v0zM221.344 448c0 160.525 130.131 290.656 290.656 290.656s290.656-130.131 290.656-290.656v0c0-160.525-130.131-290.656-290.656-290.656s-290.656 130.131-290.656 290.656v0zM512 305.344c13.255 0 24-10.745 24-24v0-0.64c0-13.255-10.745-24-24-24s-24 10.745-24 24v0 0.64c0 13.255 10.745 24 24 24v0zM512 632c-72.159 0-130.656-58.497-130.656-130.656v0c0-13.255 10.745-24 24-24s24 10.745 24 24v0c0 45.65 37.006 82.656 82.656 82.656s82.656-37.006 82.656-82.656v0c0-21.216-9.28-38.688-25.984-54.848-17.248-16.64-41.152-30.56-67.424-43.712-7.623-4.123-12.714-12.057-12.714-21.181 0-13.255 10.745-24 24-24 3.699 0 7.202 0.837 10.331 2.331l-0.145-0.062c27.104 13.536 56.512 30.144 79.264 52.096 23.296 22.464 40.672 51.68 40.672 89.376 0 72.159-58.497 130.656-130.656 130.656v0z" />
<glyph unicode="&#xe90c;" glyph-name="Range" d="M248 688c0 13.255 10.745 24 24 24v0h40c13.255 0 24-10.745 24-24s-10.745-24-24-24v0h-16v-16c0-13.255-10.745-24-24-24s-24 10.745-24 24v0 40zM368 688c0 13.255 10.745 24 24 24v0h80c13.255 0 24-10.745 24-24s-10.745-24-24-24v0h-80c-13.255 0-24 10.745-24 24v0zM528 688c0 13.255 10.745 24 24 24v0h80c13.255 0 24-10.745 24-24s-10.745-24-24-24v0h-80c-13.255 0-24 10.745-24 24v0zM688 688c0 13.255 10.745 24 24 24v0h40c13.255 0 24-10.745 24-24v0-40c0-13.255-10.745-24-24-24s-24 10.745-24 24v0 16h-16c-13.255 0-24 10.745-24 24v0zM272 592c13.255 0 24-10.745 24-24v0-80c0-13.255-10.745-24-24-24s-24 10.745-24 24v0 80c0 13.255 10.745 24 24 24v0zM752 592c13.255 0 24-10.745 24-24v0-80c0-13.255-10.745-24-24-24s-24 10.745-24 24v0 80c0 13.255 10.745 24 24 24v0zM272 432c13.255 0 24-10.745 24-24v0-80c0-13.255-10.745-24-24-24s-24 10.745-24 24v0 80c0 13.255 10.745 24 24 24v0zM752 432c13.255 0 24-10.745 24-24v0-80c0-13.255-10.745-24-24-24s-24 10.745-24 24v0 80c0 13.255 10.745 24 24 24v0zM272 272c13.255 0 24-10.745 24-24v0-16h16c13.255 0 24-10.745 24-24s-10.745-24-24-24v0h-40c-13.255 0-24 10.745-24 24v0 40c0 13.255 10.745 24 24 24v0zM752 272c13.255 0 24-10.745 24-24v0-40c0-13.255-10.745-24-24-24v0h-40c-13.255 0-24 10.745-24 24s10.745 24 24 24v0h16v16c0 13.255 10.745 24 24 24v0zM368 208c0 13.255 10.745 24 24 24v0h80c13.255 0 24-10.745 24-24s-10.745-24-24-24v0h-80c-13.255 0-24 10.745-24 24v0zM528 208c0 13.255 10.745 24 24 24v0h80c13.255 0 24-10.745 24-24s-10.745-24-24-24v0h-80c-13.255 0-24 10.745-24 24v0z" />
<glyph unicode="&#xe90d;" glyph-name="right" d="M441.696 571.648c-4.346-4.344-7.035-10.346-7.035-16.976s2.688-12.632 7.035-16.976l89.696-89.696-89.696-89.696c-3.991-4.274-6.441-10.032-6.441-16.361 0-13.255 10.745-24 24-24 6.33 0 12.087 2.45 16.375 6.454l-0.014-0.013 106.688 106.656c4.337 4.342 7.019 10.338 7.019 16.96s-2.682 12.618-7.019 16.96v0l-106.656 106.688c-4.344 4.346-10.346 7.035-16.976 7.035s-12.632-2.688-16.976-7.035v0z" />
<glyph unicode="&#xe90e;" glyph-name="Roate" d="M267.424 792c13.255 0 24-10.745 24-24v0-77.248c57.858 52.864 135.208 85.248 220.122 85.248 0.16 0 0.319 0 0.479 0h-0.025c181.12 0 328-146.848 328-328 0-68.64-21.12-132.384-57.152-185.056v-137.216c0-13.255-10.745-24-24-24s-24 10.745-24 24v0 81.6c-58.157-54.115-136.398-87.328-222.396-87.328-0.159 0-0.318 0-0.477 0h0.025c-181.12 0-328 146.88-328 328 0 70.080 21.984 135.040 59.424 188.32v131.68c0 13.255 10.745 24 24 24v0zM272.512 593.152c-25.511-41.398-40.625-91.562-40.625-145.256 0-154.64 125.36-280 280-280 78.639 0 149.706 32.418 200.566 84.62l0.059 0.060h-104.512c-13.255 0-24 10.745-24 24s10.745 24 24 24v0h142.080c26.379 41.924 42.030 92.908 42.030 147.547 0 154.64-125.36 280-280 280-79.757 0-151.725-33.347-202.723-86.858l-0.107-0.113h108.992c13.255 0 24-10.745 24-24s-10.745-24-24-24v0h-145.76z" />
<glyph unicode="&#xe90f;" glyph-name="search" d="M485.344 637.344c-89.841 0-162.672-72.831-162.672-162.672s72.831-162.672 162.672-162.672v0c89.841 0 162.672 72.831 162.672 162.672s-72.831 162.672-162.672 162.672v0zM274.656 474.656c0.021 116.327 94.327 210.62 210.656 210.62 116.342 0 210.656-94.314 210.656-210.656 0-49.695-17.208-95.37-45.989-131.393l0.325 0.422 92-92c4.173-4.312 6.745-10.197 6.745-16.681 0-13.255-10.745-24-24-24-6.477 0-12.354 2.566-16.672 6.736l-92.025 91.993c-35.613-28.489-81.315-45.718-131.040-45.718-116.342 0-210.656 94.314-210.656 210.656 0 0.008 0 0.016 0 0.023v-0.001z" />
<glyph unicode="&#xe910;" glyph-name="Show" d="M258.4 427.68c-5.248 8.128-9.376 15.040-12.384 20.32 19.977 34.16 42.092 63.722 67.118 90.532l-0.27-0.292c47.968 51.2 115.392 99.104 199.136 99.104s151.168-47.904 199.168-99.104c24.744-26.518 46.849-56.080 65.539-87.89l1.277-2.35c-19.971-34.16-42.075-63.722-67.088-90.535l0.272 0.295c-48-51.2-115.424-99.104-199.168-99.104s-151.168 47.904-199.168 99.104c-19.449 20.842-37.362 43.687-53.222 67.995l-1.178 1.925zM826.784 437.28l-21.44 10.72 21.44 10.72c1.593-3.124 2.527-6.813 2.527-10.72s-0.934-7.596-2.59-10.857l0.063 0.137zM826.784 437.28l-21.44 10.72c21.44 10.72 21.44 10.752 21.44 10.784l-0.032 0.064-0.096 0.16-0.288 0.576c-7.62 14.24-14.411 25.609-21.635 36.67l1.155-1.886c-18.694 28.777-38.356 53.839-60.006 77.022l0.294-0.318c-52.032 55.488-131.264 114.24-234.176 114.24s-182.144-58.752-234.176-114.24c-27.967-29.955-52.842-63.431-73.727-99.506l-1.409-2.638c-0.874-1.403-2.555-4.461-4.189-7.548l-0.867-1.796-0.32-0.576-0.064-0.16-0.032-0.096c-1.596-3.128-2.531-6.823-2.531-10.736s0.935-7.608 2.594-10.873l-0.063 0.137 21.44 10.72c-21.44-10.72-21.44-10.752-21.44-10.784l0.032-0.032 0.096-0.192 0.32-0.576c2.078-4.169 3.75-7.228 5.503-10.234l-0.479 0.89c22.294-38.713 47.169-72.189 75.431-102.463l-0.295 0.319c52.032-55.488 131.264-114.24 234.176-114.24s182.144 58.752 234.176 114.24c27.968 29.954 52.844 63.43 73.727 99.506l1.409 2.638c0.897 1.445 2.578 4.503 4.211 7.591l0.845 1.753 0.32 0.576 0.064 0.192 0.032 0.064zM197.216 458.752v0zM456 448c0 30.928 25.072 56 56 56s56-25.072 56-56v0c0-30.928-25.072-56-56-56s-56 25.072-56 56v0zM512 552c-57.438 0-104-46.562-104-104s46.562-104 104-104v0c57.438 0 104 46.562 104 104s-46.562 104-104 104v0z" />
<glyph unicode="&#xe911;" glyph-name="up" d="M388.352 377.696c4.344-4.346 10.346-7.035 16.976-7.035s12.632 2.688 16.976 7.035l89.696 89.696 89.696-89.696c4.274-3.991 10.032-6.441 16.361-6.441 13.255 0 24 10.745 24 24 0 6.33-2.45 12.087-6.454 16.375l0.013-0.014-106.656 106.688c-4.342 4.337-10.338 7.019-16.96 7.019s-12.618-2.682-16.96-7.019v0l-106.688-106.656c-4.346-4.344-7.035-10.346-7.035-16.976s2.688-12.632 7.035-16.976v0z" />
<glyph unicode="&#xe912;" glyph-name="Zoom" d="M777.92 537.152v151.104c-0.109 13.137-10.783 23.744-23.935 23.744-0.023 0-0.046 0-0.068 0h-150.908c-13.255 0-24-10.745-24-24s10.745-24 24-24h92.512l-160.448-158.944c-4.392-4.352-7.112-10.387-7.112-17.056 0-13.259 10.749-24.008 24.008-24.008 6.59 0 12.56 2.655 16.898 6.954l-0.002-0.002 160.992 159.488v-93.28c0-13.255 10.745-24 24-24s24 10.745 24 24v0zM488.96 391.040c4.706 4.393 7.639 10.634 7.639 17.559 0 13.255-10.745 24-24 24-6.925 0-13.165-2.933-17.546-7.625l-0.013-0.014-159.040-159.040v91.424c0 13.255-10.745 24-24 24s-24-10.745-24-24v0-149.344c0-0.011 0-0.024 0-0.037 0-6.592 2.665-12.562 6.977-16.891l-0.001 0.001 0.064-0.032 0.032-0.064c4.328-4.311 10.298-6.976 16.891-6.976 0.013 0 0.026 0 0.039 0h149.342c13.255 0 24 10.745 24 24s-10.745 24-24 24v0h-91.424l159.040 159.040z" />
<glyph unicode="&#xe913;" glyph-name="26" d="M706.666 704c42.71 0 77.334-34.623 77.334-77.334v-373.331c0-42.71-34.624-77.334-77.334-77.334h-373.331c-42.711 0-77.334 34.624-77.334 77.334v373.331c0 42.711 34.623 77.334 77.334 77.334h373.331zM626.666 459.392l-235.392-235.392h315.392c15.044 0 27.443 11.324 29.137 25.913l0.197 3.421v96.723l-109.334 109.334zM706.666 656h-373.331c-16.201 0-29.334-13.133-29.334-29.334v-373.331c0-13.19 8.706-24.349 20.686-28.038l285.010 285.008c9.373 9.373 24.566 9.373 33.939 0l92.365-92.365v208.726c0 16.201-13.133 29.334-29.334 29.334zM426.669 597.334c35.344 0 64-28.653 64-64s-28.656-64-64-64c-35.347 0-64 28.653-64 64s28.653 64 64 64zM426.669 549.334c-8.838 0-16-7.165-16-16 0-8.838 7.162-16 16-16 8.835 0 16 7.162 16 16 0 8.835-7.165 16-16 16z" />
<glyph unicode="&#xe914;" glyph-name="3" d="M595.648 657.696c5.857 5.681 13.855 9.183 22.671 9.183 17.991 0 32.576-14.585 32.576-32.576 0-8.824-3.508-16.828-9.206-22.695l-261.976-261.944-61.408-15.36 15.36 61.44 261.984 261.952zM675.648 691.616c-14.581 14.581-34.725 23.6-56.976 23.6s-42.395-9.019-56.976-23.6l-266.656-266.656c-2.995-2.983-5.206-6.751-6.299-10.969l-0.037-0.167-26.656-106.656c-0.459-1.754-0.722-3.767-0.722-5.842 0-13.255 10.745-24 24-24 2.075 0 4.088 0.263 6.008 0.758l-0.167-0.036 106.656 26.656c4.385 1.13 8.153 3.341 11.135 6.335l266.689 266.657c14.572 14.58 23.584 34.717 23.584 56.96s-9.012 42.38-23.585 56.96v0zM272 232c-13.255 0-24-10.745-24-24s10.745-24 24-24v0h480c13.255 0 24 10.745 24 24s-10.745 24-24 24v0h-480z" />
<glyph unicode="&#xe915;" glyph-name="20" d="M344 736c-30.928 0-56-25.072-56-56v-480c0-30.928 25.072-56 56-56h352c30.928 0 56 25.072 56 56v384c0 83.947-68.051 152-152 152h-256zM704 560h-368v120c0 4.418 3.581 8 8 8h256c57.437 0 104-46.562 104-104v-24zM336 512h368v-312c0-4.419-3.581-8-8-8h-352c-4.419 0-8 3.581-8 8v312z" />
<glyph unicode="&#xe916;" glyph-name="2" d="M504 746.656c0 13.255-10.745 24-24 24s-24-10.745-24-24v0-80c0-13.255 10.745-24 24-24s24 10.745 24 24v0 80zM310.304 683.616c-4.393 4.706-10.634 7.639-17.559 7.639-13.255 0-24-10.745-24-24 0-6.925 2.933-13.165 7.625-17.546l0.014-0.013 66.656-66.656c4.274-3.991 10.032-6.441 16.361-6.441 13.255 0 24 10.745 24 24 0 6.33-2.45 12.087-6.454 16.375l0.013-0.014-66.656 66.688zM683.648 683.616c-4.344 4.346-10.346 7.035-16.976 7.035s-12.632-2.688-16.976-7.035l-66.656-66.656c-3.991-4.274-6.441-10.032-6.441-16.361 0-13.255 10.745-24 24-24 6.33 0 12.087 2.45 16.375 6.454l-0.014-0.013 66.688 66.656c4.337 4.342 7.019 10.338 7.019 16.96s-2.682 12.618-7.019 16.96v0zM213.344 504c-13.255 0-24-10.745-24-24s10.745-24 24-24v0h93.312c13.255 0 24 10.745 24 24s-10.745 24-24 24v0h-93.312zM653.344 504c-13.255 0-24-10.745-24-24s10.745-24 24-24v0h93.312c13.255 0 24 10.745 24 24s-10.745 24-24 24v0h-93.312zM376.96 343.040c3.991 4.274 6.441 10.032 6.441 16.361 0 13.255-10.745 24-24 24-6.33 0-12.087-2.45-16.375-6.454l0.014 0.013-66.688-66.656c-4.516-4.37-7.319-10.485-7.319-17.255 0-13.255 10.745-24 24-24 6.778 0 12.9 2.81 17.264 7.328l66.663 66.663zM504 306.656c0 13.255-10.745 24-24 24s-24-10.745-24-24v0-93.312c0-13.255 10.745-24 24-24s24 10.745 24 24v0 93.312zM464.96 528.96c-4.393 4.706-10.634 7.639-17.559 7.639-13.255 0-24-10.745-24-24 0-6.925 2.933-13.165 7.625-17.546l0.014-0.013 288-288c4.393-4.706 10.634-7.639 17.559-7.639 13.255 0 24 10.745 24 24 0 6.925-2.933 13.165-7.625 17.546l-0.014 0.013-288 288z" />
<glyph unicode="&#xe917;" glyph-name="9" d="M526.816 720c-11.68 6.272-29.696 0.928-37.12-16l-84.8-193.376v-273.28h281.984c14.656 0 27.52 10.88 29.856 26.208l37.568 247.36c0.26 1.502 0.409 3.231 0.409 4.995 0 16.817-13.514 30.479-30.274 30.717h-153.718c-13.255 0-24 10.745-24 24v0c0 20.896 0.224 39.2 0.384 54.912 0.128 8.416 0.192 16.064 0.256 22.944 0.128 20.416-0.16 34.176-1.472 44.32-1.248 9.824-3.2 14.112-5.024 16.672-1.92 2.688-5.344 5.888-14.048 10.56zM356.896 237.344v254.304h-57.344c-16.731-0.215-30.21-13.828-30.21-30.59 0-0.136 0.001-0.271 0.003-0.407v0.021-192.384c0-17.408 13.824-30.944 30.208-30.944h57.344zM365.216 539.648l80.512 183.616c16.64 37.888 63.104 60.832 103.776 39.072 11.648-6.24 22.464-13.76 30.496-25.056 8.096-11.424 11.712-24.32 13.504-38.4 1.76-13.76 1.984-30.496 1.856-50.688l-0.576-53.568h129.632c48.32 0 84.544-43.488 77.344-90.912l-37.568-247.36c-5.768-38.022-38.15-66.848-77.295-67.008h-387.345c-43.52 0-78.208 35.648-78.208 78.944v192.384c0 43.328 34.72 78.976 78.208 78.976h65.664z" />
<glyph unicode="&#xe918;" glyph-name="13" d="M480 770.656c13.255 0 24-10.745 24-24v0-80c0-13.255-10.745-24-24-24s-24 10.745-24 24v0 80c0 13.255 10.745 24 24 24v0zM276.352 683.616c4.344 4.346 10.346 7.035 16.976 7.035s12.632-2.688 16.976-7.035l66.656-66.656c3.991-4.274 6.441-10.032 6.441-16.361 0-13.255-10.745-24-24-24-6.33 0-12.087 2.45-16.375 6.454l0.014-0.013-66.688 66.656c-4.337 4.342-7.019 10.338-7.019 16.96s2.682 12.618 7.019 16.96v0zM649.696 683.616c4.393 4.706 10.634 7.639 17.559 7.639 13.255 0 24-10.745 24-24 0-6.925-2.933-13.165-7.625-17.546l-0.014-0.013-66.656-66.656c-4.274-3.991-10.032-6.441-16.361-6.441-13.255 0-24 10.745-24 24 0 6.33 2.45 12.087 6.454 16.375l-0.013-0.014 66.656 66.688zM189.344 480c0 13.255 10.745 24 24 24v0h93.312c13.255 0 24-10.745 24-24s-10.745-24-24-24v0h-93.312c-13.255 0-24 10.745-24 24v0zM629.344 480c0 13.255 10.745 24 24 24v0h93.312c13.255 0 24-10.745 24-24s-10.745-24-24-24v0h-93.312c-13.255 0-24 10.745-24 24v0zM376.96 376.96c4.337-4.342 7.019-10.338 7.019-16.96s-2.682-12.618-7.019-16.96l-66.656-66.688c-4.311-4.164-10.188-6.729-16.665-6.729-13.255 0-24 10.745-24 24 0 6.485 2.572 12.369 6.751 16.688l-0.006-0.007 66.656 66.656c4.342 4.337 10.338 7.019 16.96 7.019s12.618-2.682 16.96-7.019v0zM480 330.656c13.255 0 24-10.745 24-24v0-93.312c0-13.255-10.745-24-24-24s-24 10.745-24 24v0 93.312c0 13.255 10.745 24 24 24v0zM556.48 436.48c1.6-0.96 3.104-2.144 4.48-3.52l192-192c4.706-4.393 7.639-10.634 7.639-17.559 0-13.255-10.745-24-24-24-6.925 0-13.165 2.933-17.546 7.625l-0.013 0.014-192 192c-1.315 1.316-2.478 2.785-3.461 4.377l-0.059 0.103c-12.502-7.235-27.504-11.505-43.503-11.505-48.601 0-88 39.399-88 88s39.399 88 88 88c48.601 0 88-39.399 88-88 0-15.999-4.269-31.001-11.731-43.928l0.226 0.425zM440 480c0 22.091 17.909 40 40 40s40-17.909 40-40v0c0-22.091-17.909-40-40-40s-40 17.909-40 40v0z" />
<glyph unicode="&#xe919;" glyph-name="8" d="M133.312 789.312c0 20.608 16.704 37.312 37.312 37.312h384c20.672 0 37.376-16.64 37.376-37.312v-42.688c0-26.51 21.49-48 48-48s48 21.49 48 48v0 42.688c0 73.6-59.712 133.376-133.376 133.376h-384c-73.6 0-133.312-59.712-133.312-133.376v-384c0-73.6 59.712-133.312 133.312-133.312h42.688c26.51 0 48 21.49 48 48s-21.49 48-48 48v0h-42.688c-20.607 0-37.312 16.705-37.312 37.312v384zM432 490.688c0 20.608 16.704 37.312 37.312 37.312h384c20.608 0 37.376-16.704 37.376-37.312v-384c0-0.019 0-0.042 0-0.064 0-20.607-16.705-37.312-37.312-37.312-0.023 0-0.045 0-0.068 0h-383.997c0 0 0 0 0 0-20.607 0-37.312 16.705-37.312 37.312 0 0.023 0 0.045 0 0.068v-0.004 384zM469.312 624c-73.6 0-133.312-59.712-133.312-133.312v-384c0-73.6 59.712-133.376 133.312-133.376h384c73.6 0 133.376 59.712 133.376 133.376v384c0 73.6-59.712 133.312-133.376 133.312h-384z" />
<glyph unicode="&#xe91a;" glyph-name="21" d="M224 685.333c0 27.982 22.684 50.667 50.667 50.667h319.999c27.984 0 50.669-22.684 50.669-50.667v-56.001h109.331c27.984 0 50.669-22.685 50.669-50.666v-213.334c0-116.349-94.32-210.666-210.669-210.666-79.082 0-147.987 43.574-184.013 108.022-105.051 11.93-186.653 101.082-186.653 209.312v213.332zM597.335 685.333c0 1.473-1.197 2.667-2.669 2.667h-319.999c-1.473 0-2.667-1.194-2.667-2.667v-213.332c0-74.314 49.844-137.002 117.914-156.438-3.866 15.958-5.914 32.624-5.914 49.77v213.334c0 27.981 22.685 50.666 50.666 50.666h162.669v56.001zM434.666 581.332c-1.472 0-2.666-1.194-2.666-2.666v-213.334c0-89.84 72.829-162.666 162.666-162.666 89.84 0 162.669 72.826 162.669 162.666v213.334c0 1.472-1.197 2.666-2.669 2.666h-320zM531.636 488.967l0.429-0.429c9.373-9.373 9.373-24.566 0-33.939-9.37-9.373-24.566-9.373-33.939 0l-0.429 0.429c-9.373 9.373-9.373 24.57 0 33.939 9.373 9.373 24.566 9.373 33.939 0zM657.696 488.967c-9.373-9.37-9.373-24.566 0-33.939l0.429-0.429c9.373-9.373 24.57-9.373 33.939 0 9.373 9.373 9.373 24.566 0 33.939l-0.429 0.429c-9.373 9.373-24.566 9.373-33.939 0zM551.469 329.687c10.31-12.47 25.821-20.349 43.194-20.349 16.582 0 31.456 7.178 41.744 18.672 8.838 9.875 24.013 10.717 33.888 1.878 9.878-8.838 10.72-24.013 1.882-33.888-19.011-21.242-46.714-34.662-77.514-34.662-32.285 0-61.146 14.739-80.186 37.76-8.445 10.218-7.014 25.344 3.203 33.792 10.214 8.445 25.341 7.011 33.789-3.203z" />
<glyph unicode="&#xe91b;" d="M512 960v0q512 0 512-512v0q0-512-512-512v0q-512 0-512 512v0q0 512 512 512z" />
<glyph unicode="&#xe91c;" d="M345.685 614.315c9.387 9.387 24.576 9.387 33.963 0l132.352-132.352 132.352 132.352c4.346 4.346 10.35 7.034 16.981 7.034 13.263 0 24.015-10.752 24.015-24.015 0-6.632-2.688-12.635-7.034-16.981l-132.352-132.352 132.352-132.352c4.346-4.346 7.034-10.35 7.034-16.981 0-13.263-10.752-24.015-24.015-24.015-6.632 0-12.635 2.688-16.981 7.034l-132.352 132.352-132.352-132.352c-4.346-4.346-10.35-7.034-16.981-7.034-13.263 0-24.015 10.752-24.015 24.015 0 6.632 2.688 12.635 7.034 16.981l132.352 132.352-132.352 132.352c-4.344 4.347-7.031 10.35-7.031 16.981s2.687 12.635 7.031 16.981v0z" />
<glyph unicode="&#xe91d;" glyph-name="22" d="M764.382 682.108c71.856-71.856 71.856-188.358 0-260.214l-226.275-226.275c-71.856-71.856-188.358-71.856-260.214 0s-71.856 188.358 0 260.214l22.443 22.445c0.060 0.061 0.122 0.122 0.183 0.182 0.061 0.064 0.123 0.125 0.185 0.186l203.464 203.462c71.856 71.856 188.358 71.856 260.214 0zM317.49 427.548l-5.657-5.654c-53.111-53.114-53.111-139.222 0-192.333 53.111-53.114 139.223-53.114 192.334 0l5.654 5.654-192.332 192.333zM543.764 269.158l147.078 147.078-192.333 192.333-56.566-56.57 50.912-50.909c9.37-9.373 9.37-24.57 0-33.942-9.373-9.373-24.57-9.373-33.942 0l-50.912 50.912-56.57-56.57 192.333-192.333zM724.785 450.175l5.654 5.658c53.114 53.11 53.114 139.222 0 192.334-53.11 53.111-139.219 53.111-192.333 0l-5.654-5.657 192.333-192.334z" />
<glyph unicode="&#xe91e;" glyph-name="23" d="M520 736c66.586 0 123.456-41.357 146.435-99.698 4.854-12.333-1.203-26.269-13.536-31.126-12.336-4.858-26.269 1.203-31.126 13.536-15.994 40.613-55.565 69.289-101.773 69.289-60.384 0-109.334-48.95-109.334-109.333v-82.666h296c42.71 0 77.334-34.624 77.334-77.334v-186.666c0-42.71-34.624-77.334-77.334-77.334h-373.331c-42.711 0-77.334 34.624-77.334 77.334v186.666c0 42.71 34.623 77.334 77.334 77.334h29.331v82.666c0 86.893 70.442 157.333 157.334 157.333zM386.666 448.001h-53.331c-16.201 0-29.334-13.133-29.334-29.334v-186.666c0-16.202 13.133-29.334 29.334-29.334h373.331c16.202 0 29.334 13.133 29.334 29.334v186.666c0 16.202-13.133 29.334-29.334 29.334h-320z" />
<glyph unicode="&#xe91f;" glyph-name="6" d="M410.666 578.667v-82.666h218.666v82.666c0 60.383-48.95 109.333-109.331 109.333-60.384 0-109.334-48.95-109.334-109.333zM386.506 448.001h-53.171c-16.201 0-29.334-13.133-29.334-29.334v-186.666c0-16.202 13.133-29.334 29.334-29.334h373.331c16.202 0 29.334 13.133 29.334 29.334v186.666c0 16.202-13.133 29.334-29.334 29.334h-53.174c-0.051 0-0.106 0-0.16 0-0.051 0-0.106 0-0.157 0h-266.349c-0.054 0-0.106 0-0.16 0-0.051 0-0.106 0-0.16 0zM362.666 496.001v82.666c0 86.893 70.442 157.333 157.334 157.333s157.331-70.44 157.331-157.333v-82.666h29.334c42.71 0 77.334-34.624 77.334-77.334v-186.666c0-42.71-34.624-77.334-77.334-77.334h-373.331c-42.711 0-77.334 34.624-77.334 77.334v186.666c0 42.71 34.623 77.334 77.334 77.334h29.331z" />
<glyph unicode="&#xe920;" d="M170.667 960h682.667q170.667 0 170.667-170.667v-682.667q0-170.667-170.667-170.667h-682.667q-170.667 0-170.667 170.667v682.667q0 170.667 170.667 170.667z" />
<glyph unicode="&#xe921;" d="M688.469 561.365h-226.048c-12.16 0-23.893 5.333-32 14.507l-75.947 86.187c-2.042 2.253-3.292 5.257-3.292 8.554 0 1.927 0.427 3.754 1.192 5.391l-0.033-0.078c2.133 4.693 6.827 7.68 11.947 7.467h324.309c67.393 0 122.027-54.633 122.027-122.027v0h-0.085v-377.643c0.007-0.153 0.011-0.332 0.011-0.512 0-5.314-3.338-9.848-8.032-11.62l-0.085-0.028c-1.386-0.556-2.993-0.878-4.675-0.878-3.707 0-7.048 1.565-9.399 4.071l-0.006 0.007-88.32 94.293c-7.135 7.571-11.52 17.803-11.52 29.059 0 0.059 0 0.118 0 0.176v-0.009 263.083zM213.632 335.104h-0.299c0-67.393 54.633-122.027 122.027-122.027v0h324.565c7.015 0.072 12.673 5.775 12.673 12.799 0 3.185-1.163 6.098-3.088 8.338l0.014-0.017-75.733 86.4c-7.921 8.913-19.414 14.502-32.213 14.507h-225.921v263.083c0 10.88-4.053 21.333-11.52 29.227l-88.533 94.080c-2.346 2.38-5.605 3.855-9.209 3.855-1.675 0-3.276-0.319-4.745-0.899l0.088 0.030c-4.756-1.874-8.069-6.412-8.107-11.729v-377.605z" />
<glyph unicode="&#xe922;" d="M427.776 448.213c0 16.853 13.653 30.507 30.72 30.507 0.002 0 0.004 0 0.006 0 16.848 0 30.507-13.658 30.507-30.507s-13.658-30.507-30.507-30.507c-0.002 0-0.004 0-0.006 0v0c-17.067 0-30.72 13.653-30.72 30.549zM534.997 448.213c0 16.853 13.653 30.507 30.72 30.507 0.002 0 0.004 0 0.006 0 16.848 0 30.507-13.658 30.507-30.507s-13.658-30.507-30.507-30.507c-0.002 0-0.004 0-0.006 0v0c-17.067 0-30.72 13.653-30.72 30.549z" />
<glyph unicode="&#xe923;" glyph-name="5" d="M688.96 678.304c-4.393 4.706-10.634 7.639-17.559 7.639-13.255 0-24-10.745-24-24 0-6.925 2.933-13.165 7.625-17.546l0.014-0.013 39.040-39.040h-128.736c-0.009 0-0.020 0-0.031 0-8.693 0-16.306-4.622-20.517-11.542l-0.060-0.106-59.392-99.040-59.424 99.040c-4.271 7.026-11.884 11.647-20.576 11.648h-133.344c-13.255 0-24-10.745-24-24s10.745-24 24-24v0h119.744l65.6-109.344-65.6-109.344h-119.744c-13.255 0-24-10.745-24-24s10.745-24 24-24v0h133.344c8.698 0.008 16.312 4.641 20.516 11.573l0.060 0.107 59.424 99.008 59.392-99.040c4.271-7.026 11.884-11.648 20.577-11.648 0.011 0 0.022 0 0.032 0h128.702l-39.040-39.040c-4.164-4.311-6.729-10.188-6.729-16.665 0-13.255 10.745-24 24-24 6.485 0 12.369 2.572 16.688 6.751l-0.007-0.006 80 80c4.352 4.335 7.045 10.333 7.045 16.96s-2.693 12.625-7.045 16.959l-80.001 80.001c-4.393 4.706-10.634 7.639-17.559 7.639-13.255 0-24-10.745-24-24 0-6.925 2.933-13.165 7.625-17.546l0.014-0.013 39.040-39.040h-115.2l-65.568 109.344 65.6 109.344h115.136l-39.040-39.040c-4.516-4.37-7.319-10.485-7.319-17.255 0-13.255 10.745-24 24-24 6.778 0 12.9 2.81 17.264 7.328l80.007 80.007c4.36 4.331 7.059 10.331 7.059 16.96s-2.699 12.629-7.058 16.959l-80.001 80.001z" />
<glyph unicode="&#xe924;" glyph-name="4" d="M776.704 618.048h-339.072c-18.24 0-35.84 8-48 21.76l-113.984 129.28c-3.067 3.376-4.944 7.881-4.944 12.825 0 2.893 0.643 5.635 1.794 8.093l-0.049-0.117c3.2 7.040 10.24 11.52 17.92 11.2h486.528c0.010 0 0.021 0 0.032 0 101.090 0 183.040-81.95 183.040-183.040v0h-0.192v-566.464c0.32-8-4.48-15.36-12.16-18.24-7.36-2.88-15.68-0.96-21.12 4.8l-132.512 141.44c-11.2 11.84-17.28 27.52-17.28 43.84v394.624zM64.416 278.688h-0.416c0-101.090 81.95-183.040 183.040-183.040 0.011 0 0.022 0 0.034 0h486.846c10.522 0.107 19.010 8.662 19.010 19.199 0 4.777-1.745 9.147-4.631 12.506l0.021-0.025-113.632 129.6c-12.16 13.76-29.76 21.76-48.32 21.76h-338.88v394.56c0 16.32-6.080 32-17.28 43.84l-132.8 141.12c-3.524 3.567-8.415 5.777-13.822 5.777-2.51 0-4.908-0.476-7.11-1.342l0.132 0.046c-7.36-2.88-12.16-9.92-12.16-17.6v-566.4zM385.664 448.32c0 25.28 20.48 45.76 46.080 45.76 25.273 0 45.76-20.487 45.76-45.76s-20.487-45.76-45.76-45.76v0c-25.6 0-46.080 20.48-46.080 45.76zM546.496 448.32c0 25.28 20.48 45.76 46.080 45.76 25.273 0 45.76-20.487 45.76-45.76s-20.487-45.76-45.76-45.76v0c-25.6 0-46.080 20.48-46.080 45.76z" />
<glyph unicode="&#xe925;" glyph-name="24" d="M466.666 688c-16.198 0-29.331-13.133-29.331-29.333v-29.335h165.331v29.335c0 16.201-13.133 29.333-29.331 29.333h-106.669zM650.666 629.332h109.334c13.254 0 24-10.742 24-24 0-13.254-10.746-24-24-24h-29.334v-349.331c0-42.71-34.621-77.334-77.331-77.334h-266.669c-42.707 0-77.332 34.624-77.332 77.334v349.331h-29.333c-13.255 0-24 10.746-24 24 0 13.258 10.745 24 24 24h109.334v29.335c0 42.71 34.621 77.333 77.331 77.333h106.669c42.71 0 77.331-34.623 77.331-77.333v-29.335zM357.334 581.332v-349.331c0-16.202 13.133-29.334 29.331-29.334h266.669c16.202 0 29.331 13.133 29.331 29.334v349.331h-325.331zM573.331 495.998c-13.254 0-24-10.746-24-24v-160c0-13.254 10.746-24 24-24s24 10.746 24 24v160c0 13.254-10.746 24-24 24zM490.669 471.998v-160c0-13.254-10.746-24-24-24s-24 10.746-24 24v160c0 13.254 10.746 24 24 24s24-10.746 24-24z" />
<glyph unicode="&#xe926;" d="M512 657.056c21.208 0 38.4-17.192 38.4-38.4v0-132.256h132.256c21.208 0 38.4-17.192 38.4-38.4s-17.192-38.4-38.4-38.4h-132.256v-132.256c0-21.208-17.192-38.4-38.4-38.4s-38.4 17.192-38.4 38.4v0 132.256h-132.256c-21.208 0-38.4 17.192-38.4 38.4s17.192 38.4 38.4 38.4h132.256v132.256c0 21.208 17.192 38.4 38.4 38.4v0z" />
<glyph unicode="&#xe927;" d="M512 637.856c10.604 0 19.2-8.596 19.2-19.2v0-151.456h151.456c10.604 0 19.2-8.596 19.2-19.2s-8.596-19.2-19.2-19.2v0h-151.456v-151.456c0-10.604-8.596-19.2-19.2-19.2s-19.2 8.596-19.2 19.2v0 151.456h-151.488c-10.604 0-19.2 8.596-19.2 19.2s8.596 19.2 19.2 19.2h151.488v151.456c0 10.604 8.596 19.2 19.2 19.2v0z" />
<glyph unicode="&#xe928;" glyph-name="12" d="M512 765.344c10.606-0.008 19.601-6.894 22.767-16.438l0.049-0.17 63.872-196.512h206.656c13.248-0.009 23.984-10.751 23.984-24 0-7.957-3.873-15.010-9.836-19.377l-0.067-0.047-167.168-121.472 63.84-196.544c0.74-2.207 1.166-4.749 1.166-7.39 0-13.255-10.745-24-24-24-5.296 0-10.192 1.716-14.162 4.622l0.068-0.047-167.168 121.472-167.2-121.472c-3.902-2.859-8.798-4.574-14.094-4.574-13.255 0-24 10.745-24 24 0 2.641 0.427 5.183 1.215 7.56l-0.049-0.17 63.872 196.544-167.2 121.472c-6.031 4.414-9.904 11.467-9.904 19.424 0 13.255 10.745 24 24 24 0.005 0 0.011 0 0.016 0h206.655l63.872 196.512c3.215 9.714 12.21 16.6 22.815 16.608h0.001zM512 663.68l-46.4-142.88c-3.226-9.703-12.222-16.576-22.823-16.576-0.009 0-0.018 0-0.026 0h-150.207l121.536-88.32c6.016-4.415 9.877-11.459 9.877-19.405 0-2.649-0.429-5.198-1.222-7.581l0.049 0.169-46.4-142.88 121.504 88.32c3.906 2.867 8.808 4.587 14.112 4.587s10.206-1.721 14.179-4.634l-0.067 0.047 121.536-88.32-46.4 142.88c-0.748 2.219-1.179 4.774-1.179 7.43 0 7.935 3.851 14.97 9.785 19.339l0.066 0.047 121.536 88.32h-150.208c-10.598 0.003-19.591 6.875-22.767 16.407l-0.049 0.169-46.432 142.88z" />
<glyph unicode="&#xe929;" glyph-name="14" d="M376 661.344c0 1.472 1.184 2.656 2.656 2.656h266.688c1.472 0 2.656-1.184 2.656-2.656v-453.344c0-1.467-1.189-2.656-2.656-2.656v0h-266.688c-1.467 0-2.656 1.189-2.656 2.656v0 453.344zM378.656 712c-27.968 0-50.656-22.688-50.656-50.656v-453.344c0-28 22.688-50.656 50.656-50.656h266.688c27.968 0 50.656 22.656 50.656 50.656v453.344c0 27.968-22.688 50.656-50.656 50.656h-266.688zM528.96 304.96c-4.393 4.706-10.634 7.639-17.559 7.639-13.255 0-24-10.745-24-24 0-6.925 2.933-13.165 7.625-17.546l0.014-0.013 0.416-0.448c4.393-4.706 10.634-7.639 17.559-7.639 13.255 0 24 10.745 24 24 0 6.925-2.933 13.165-7.625 17.546l-0.014 0.013-0.416 0.448z" />
<glyph unicode="&#xe92a;" d="M530.176 448c0 21.208 17.192 38.4 38.4 38.4v0h282.848c21.208 0 38.4-17.192 38.4-38.4s-17.192-38.4-38.4-38.4h-282.88c-21.208 0-38.4 17.192-38.4 38.4v0z" />
<glyph unicode="&#xe92b;" d="M718.656 315.264c-6.948 6.949-11.246 16.549-11.246 27.152s4.298 20.203 11.246 27.152l78.464 78.432-78.464 78.432c-7.081 6.97-11.469 16.659-11.469 27.373 0 21.208 17.192 38.4 38.4 38.4 10.714 0 20.403-4.388 27.368-11.464l105.605-105.605c6.948-6.949 11.246-16.549 11.246-27.152s-4.298-20.203-11.246-27.152l-105.6-105.6c-6.949-6.948-16.549-11.246-27.152-11.246s-20.203 4.298-27.152 11.246v0z" />
<glyph unicode="&#xe92c;" d="M549.376 448c0 10.604 8.596 19.2 19.2 19.2v0h282.848c10.604 0 19.2-8.596 19.2-19.2s-8.596-19.2-19.2-19.2v0h-282.88c-10.604 0-19.2 8.596-19.2 19.2v0z" />
<glyph unicode="&#xe92d;" d="M732.256 328.832c-3.469 3.474-5.615 8.27-5.615 13.568s2.146 10.094 5.615 13.568v0l92 92.032-92 92.032c-3.193 3.419-5.153 8.025-5.153 13.089 0 10.604 8.596 19.2 19.2 19.2 5.064 0 9.67-1.96 13.1-5.163l-0.011 0.010 105.6-105.6c3.469-3.474 5.615-8.27 5.615-13.568s-2.146-10.094-5.615-13.568v0l-105.6-105.6c-3.474-3.469-8.27-5.615-13.568-5.615s-10.094 2.146-13.568 5.615v0zM157.664 462.912l106.688 106.688c3.462 3.404 8.215 5.506 13.458 5.506 10.604 0 19.2-8.596 19.2-19.2 0-5.251-2.108-10.010-5.524-13.476l-74.11-74.11 238.144-1.12c10.569-0.045 19.12-8.624 19.12-19.2 0-10.604-8.596-19.2-19.2-19.2-0.028 0-0.056 0-0.084 0h0.004l-237.536 1.12 73.664-73.664c3.545-3.486 5.742-8.333 5.742-13.694 0-10.604-8.596-19.2-19.2-19.2-5.353 0-10.194 2.19-13.676 5.724l-106.69 106.69c-3.469 3.474-5.615 8.27-5.615 13.568s2.146 10.094 5.615 13.568v0zM157.664 462.912c-3.404-3.405-5.531-8.088-5.6-13.267v-0.013z" />
<glyph unicode="&#xe92e;" d="M499.168 435.168c6.958-6.951 11.262-16.557 11.262-27.168s-4.304-20.217-11.262-27.168v0l-200-200c-6.95-6.946-16.549-11.242-27.152-11.242-21.213 0-38.41 17.197-38.41 38.41 0 10.611 4.302 20.216 11.258 27.168l200 200c6.949 6.948 16.549 11.246 27.152 11.246s20.203-4.298 27.152-11.246v0z" />
<glyph unicode="&#xe92f;" d="M272 395.744c21.208 0 38.4-17.192 38.4-38.4v0-110.944h110.944c21.208 0 38.4-17.192 38.4-38.4s-17.192-38.4-38.4-38.4h-149.344c-21.208 0-38.4 17.192-38.4 38.4v0 149.344c0 21.208 17.192 38.4 38.4 38.4v0zM792.32 688v-150.848c0-21.208-17.192-38.4-38.4-38.4s-38.4 17.192-38.4 38.4v0 58.752l-136.48-135.2c-6.939-6.879-16.493-11.13-27.040-11.13-21.213 0-38.41 17.197-38.41 38.41 0 10.666 4.348 20.317 11.368 27.277l135.619 134.339h-57.536c-21.208 0-38.4 17.192-38.4 38.4s17.192 38.4 38.4 38.4h150.848c0.006 0 0.013 0 0.020 0 10.627 0 20.243-4.332 27.178-11.325l0.003-0.003c0.096-0.032 0.128-0.096 0.192-0.16 6.816-6.912 11.008-16.416 11.008-26.912zM727.136 715.552l-0.256-0.288z" />
<glyph unicode="&#xe930;" d="M485.568 421.568c3.469-3.474 5.615-8.27 5.615-13.568s-2.146-10.094-5.615-13.568v0l-200-200c-3.419-3.193-8.025-5.153-13.089-5.153-10.604 0-19.2 8.596-19.2 19.2 0 5.064 1.96 9.67 5.163 13.1l-0.010-0.011 200 200c3.474 3.469 8.27 5.615 13.568 5.615s10.094-2.146 13.568-5.615v0z" />
<glyph unicode="&#xe931;" d="M272 376.544c10.604 0 19.2-8.596 19.2-19.2v0-130.144h130.144c10.604 0 19.2-8.596 19.2-19.2s-8.596-19.2-19.2-19.2h-149.344c-10.604 0-19.2 8.596-19.2 19.2v0 149.344c0 10.604 8.596 19.2 19.2 19.2v0zM773.12 688v-150.848c0-10.604-8.596-19.2-19.2-19.2s-19.2 8.596-19.2 19.2v0 104.768l-169.216-167.584c-3.412-3.158-7.993-5.096-13.027-5.096-10.604 0-19.2 8.596-19.2 19.2 0 5.098 1.987 9.731 5.228 13.169l-0.009-0.009 168.704 167.2h-104.192c-10.604 0-19.2 8.596-19.2 19.2s8.596 19.2 19.2 19.2h150.848c5.332-0.001 10.156-2.179 13.63-5.694l0.002-0.002 0.16-0.128c3.616-3.712 5.44-8.544 5.44-13.376zM773.12 688c0 0.003 0 0.008 0 0.012 0 5.202-2.076 9.919-5.444 13.368l0.004-0.004z" />
<glyph unicode="&#xe932;" d="M660.576 720.48l-106.656 106.656c-6.862 6.889-16.33 11.179-26.8 11.264h-0.272c-0.034 0-0.075 0-0.115 0-10.596 0-20.186-4.306-27.116-11.263l-106.657-106.657c-7.081-6.97-11.469-16.659-11.469-27.373 0-21.208 17.192-38.4 38.4-38.4 10.714 0 20.403 4.388 27.368 11.464l40.645 40.677-0.864-190.848c0-0.052 0-0.114 0-0.176 0-21.208 17.192-38.4 38.4-38.4 21.146 0 38.3 17.092 38.4 38.215v0.010l0.896 192.064 41.536-41.536c6.97-7.081 16.659-11.469 27.373-11.469 21.208 0 38.4 17.192 38.4 38.4 0 10.714-4.388 20.403-11.464 27.368l-0.005 0.005zM488.352 800.16v0zM525.44 441.088c21.208 0 38.4-17.192 38.4-38.4v0-190.144l40 40.032c6.952 6.956 16.557 11.258 27.168 11.258 21.213 0 38.41-17.197 38.41-38.41 0-10.603-4.296-20.202-11.242-27.152l-105.28-105.28c-7.002-7.126-16.741-11.542-27.512-11.542-5.083 0-9.936 0.983-14.379 2.77l0.259-0.092c-5.065 2.036-9.388 4.931-12.991 8.543l-105.601 105.601c-7.081 6.97-11.469 16.659-11.469 27.373 0 21.208 17.192 38.4 38.4 38.4 10.714 0 20.403-4.388 27.368-11.464l40.069-40.037v190.144c0 21.208 17.192 38.4 38.4 38.4v0z" />
<glyph unicode="&#xe933;" d="M647.008 706.912l-106.656 106.656c-3.409 3.423-8.104 5.562-13.299 5.632h-0.205c-0.031 0-0.068 0-0.105 0-5.298 0-10.093-2.153-13.558-5.632l-106.657-106.657c-3.414-3.464-5.522-8.223-5.522-13.474 0-10.604 8.596-19.2 19.2-19.2 5.243 0 9.995 2.102 13.46 5.508l73.693 73.693-1.152-237.536c0-0.024 0-0.052 0-0.080 0-10.604 8.596-19.2 19.2-19.2 10.576 0 19.155 8.551 19.2 19.116v0.004l1.152 238.112 74.080-74.112c3.476-3.476 8.279-5.627 13.584-5.627 10.61 0 19.211 8.601 19.211 19.211 0 5.305-2.15 10.108-5.627 13.584v0zM527.040 819.2l13.312-5.632c-3.412 3.417-8.105 5.555-13.297 5.632h-0.015zM525.44 421.888c10.604 0 19.2-8.596 19.2-19.2v0-236.48l72.8 72.8c3.476 3.476 8.279 5.627 13.584 5.627 10.61 0 19.211-8.601 19.211-19.211 0-5.305-2.15-10.108-5.627-13.584l-105.6-105.6c-3.453-3.494-8.246-5.658-13.544-5.658-2.949 0-5.742 0.671-8.234 1.868l0.114-0.049c-2.197 1.041-4.072 2.394-5.66 4.027l-0.004 0.005-105.44 105.408c-3.476 3.476-5.627 8.279-5.627 13.584 0 10.61 8.601 19.211 19.211 19.211 5.305 0 10.108-2.15 13.584-5.627l72.8-72.832v236.48c0 10.604 8.596 19.2 19.2 19.2v0z" />
<glyph unicode="&#xe934;" d="M422.848 728.32h-150.848c-10.496 0-20-4.224-26.912-11.040l-0.16-0.16c-6.997-6.937-11.328-16.553-11.328-27.18 0-0.007 0-0.014 0-0.021v0.001-150.912c0-21.208 17.192-38.4 38.4-38.4s38.4 17.192 38.4 38.4v0 57.536l134.336-135.616c6.963-7.023 16.614-11.37 27.28-11.37 21.213 0 38.41 17.197 38.41 38.41 0 10.547-4.251 20.101-11.133 27.043l-135.197 136.445h58.752c21.208 0 38.4 17.192 38.4 38.4s-17.192 38.4-38.4 38.4v0zM524.832 435.168c6.951 6.958 16.557 11.262 27.168 11.262s20.217-4.304 27.168-11.262l134.432-134.464v56.64c0 21.208 17.192 38.4 38.4 38.4s38.4-17.192 38.4-38.4v-148.896c0.001-0.11 0.002-0.239 0.002-0.369 0-4.46-0.75-8.746-2.132-12.736l0.082 0.273c-3.541-10.237-11.010-18.332-20.558-22.623l-0.242-0.097c-4.568-2.082-9.908-3.296-15.531-3.296-0.007 0-0.015 0-0.022 0h-149.343c-21.208 0-38.4 17.192-38.4 38.4s17.192 38.4 38.4 38.4h56.64l-134.464 134.432c-6.958 6.951-11.262 16.557-11.262 27.168s4.304 20.217 11.262 27.168v0z" />
<glyph unicode="&#xe935;" d="M565.568 421.568c-3.515 3.764-8.507 6.111-14.047 6.111-10.604 0-19.2-8.596-19.2-19.2 0-5.54 2.346-10.532 6.1-14.037l0.011-0.010 167.168-167.232h-102.976c-10.604 0-19.2-8.596-19.2-19.2s8.596-19.2 19.2-19.2h149.056c0.051 0 0.111-0.001 0.17-0.001 4.255 0 8.194 1.355 11.409 3.657l-0.059-0.040c4.866 3.525 7.996 9.189 8 15.583v149.345c0 10.604-8.596 19.2-19.2 19.2s-19.2-8.596-19.2-19.2v0-103.008l-167.264 167.232zM272 709.12h150.848c10.604 0 19.2-8.596 19.2-19.2s-8.596-19.2-19.2-19.2h-104.8l167.584-169.216c3.723-3.51 6.040-8.475 6.040-13.981 0-10.604-8.596-19.2-19.2-19.2-5.57 0-10.586 2.372-14.093 6.16l-0.012 0.013-167.168 168.704v-104.192c0-10.604-8.596-19.2-19.2-19.2s-19.2 8.596-19.2 19.2v0 150.912c0 0.019 0 0.042 0 0.064 0 10.569 8.567 19.136 19.136 19.136 0.023 0 0.045 0 0.068 0h-0.004zM272 709.12c-0.003 0-0.008 0-0.012 0-5.202 0-9.919-2.076-13.368-5.444l0.004 0.004z" />
<glyph unicode="&#xe936;" glyph-name="15" d="M580.832 733.76c8.234-3.921 13.824-12.176 13.824-21.736 0-0.008 0-0.017 0-0.025v0.001-528c-0.005-13.251-10.748-23.991-24-23.991-5.86 0-11.23 2.1-15.398 5.59l0.038-0.031-169.312 141.12h-137.984c-29.44 0-53.344 23.84-53.344 53.312v176c0 29.44 23.904 53.344 53.344 53.344h137.984l169.312 141.12c4.126 3.447 9.487 5.539 15.336 5.539 3.704 0 7.212-0.839 10.344-2.338l-0.145 0.062zM546.656 660.768l-136.64-113.856c-4.129-3.462-9.499-5.565-15.359-5.568h-146.657c-2.951 0-5.344-2.393-5.344-5.344v0-176c0-2.944 2.4-5.344 5.344-5.344h146.656c0.008 0 0.018 0 0.028 0 5.848 0 11.207-2.091 15.371-5.567l-0.038 0.031 136.64-113.888v425.568zM642.784 543.616c4.211 3.733 9.783 6.013 15.889 6.013 7.156 0 13.58-3.132 17.977-8.099l0.022-0.025c21.933-24.72 35.328-57.445 35.328-93.3 0-0.072 0-0.144 0-0.215v0.011c0-35.84-13.376-68.608-35.328-93.504-4.42-4.991-10.845-8.121-18-8.121-13.26 0-24.009 10.749-24.009 24.009 0 6.104 2.278 11.677 6.031 15.913l-0.022-0.025c14.482 16.307 23.328 37.902 23.328 61.563 0 0.058 0 0.116 0 0.174v-0.009c0 23.68-8.8 45.248-23.328 61.728-3.733 4.211-6.013 9.783-6.013 15.889 0 7.156 3.132 13.58 8.099 17.977l0.025 0.022zM796.704 577.44c-4.301 6.875-11.831 11.38-20.414 11.38-13.255 0-24-10.745-24-24 0-4.245 1.102-8.233 3.036-11.693l-0.062 0.122c15.904-27.2 26.080-64 26.080-105.248 0-41.216-10.208-78.048-26.080-105.216-2.060-3.469-3.278-7.648-3.278-12.112 0-13.263 10.752-24.014 24.014-24.014 8.799 0 16.493 4.732 20.675 11.791l0.061 0.111c20.64 35.36 32.608 80.704 32.608 129.44s-11.968 94.080-32.64 129.44z" />
<glyph unicode="&#xe937;" glyph-name="16" d="M536 688c0 13.255-10.745 24-24 24s-24-10.745-24-24v0-422.080l-145.696 145.728c-4.311 4.164-10.188 6.729-16.665 6.729-13.255 0-24-10.745-24-24 0-6.485 2.572-12.369 6.751-16.688l-0.006 0.007 186.656-186.656c4.333-4.37 10.339-7.076 16.977-7.076 6.685 0 12.729 2.744 17.068 7.168l186.564 186.564c4.516 4.37 7.319 10.485 7.319 17.255 0 13.255-10.745 24-24 24-6.778 0-12.9-2.81-17.264-7.328l-145.703-145.671v422.048z" />
<glyph unicode="&#xe938;" d="M512 646.4c-139.815-0.003-256.864-97.469-286.913-228.164l-0.383-1.98-48.224 48.224c-6.97 7.081-16.659 11.469-27.373 11.469-21.208 0-38.4-17.192-38.4-38.4 0-10.714 4.388-20.403 11.464-27.368l106.661-106.661c6.949-6.948 16.549-11.246 27.152-11.246s20.203 4.298 27.152 11.246l106.688 106.656c6.817 6.926 11.027 16.437 11.027 26.931 0 21.208-17.192 38.4-38.4 38.4-10.494 0-20.005-4.209-26.936-11.032l-20.891-20.891c35.388 75.025 110.403 126.016 197.327 126.016 0.017 0 0.035 0 0.052 0h-0.003c0.001 0 0.003 0 0.005 0 86.954 0 161.995-51.002 196.84-124.724l0.563-1.324-20.928 20.928c-6.97 7.081-16.659 11.469-27.373 11.469-21.208 0-38.4-17.192-38.4-38.4 0-10.714 4.388-20.403 11.464-27.368l106.661-106.661c6.949-6.948 16.549-11.246 27.152-11.246s20.203 4.298 27.152 11.246l106.688 106.656c6.817 6.926 11.027 16.437 11.027 26.931 0 21.208-17.192 38.4-38.4 38.4-10.494 0-20.005-4.209-26.936-11.032l-48.219-48.187c-30.445 132.661-147.489 230.112-287.295 230.112 0 0-0.001 0-0.001 0v0z" />
<glyph unicode="&#xe939;" d="M512 627.2c-143.547-0.005-261.421-109.914-274.067-250.169l-0.077-1.063-74.976 74.944c-3.476 3.476-8.279 5.627-13.584 5.627-10.61 0-19.211-8.601-19.211-19.211 0-5.305 2.15-10.108 5.627-13.584l106.656-106.656c3.475-3.479 8.278-5.631 13.584-5.631s10.109 2.152 13.584 5.631v0l106.656 106.656c3.545 3.486 5.742 8.333 5.742 13.694 0 10.604-8.596 19.2-19.2 19.2-5.353 0-10.194-2.19-13.676-5.724l-72.418-72.418c13.779 118.876 113.869 210.295 235.312 210.295s221.533-91.419 235.208-209.193l0.104-1.102-72.384 72.416c-3.476 3.476-8.279 5.627-13.584 5.627-10.61 0-19.211-8.601-19.211-19.211 0-5.305 2.15-10.108 5.627-13.584l106.688-106.656c3.474-3.469 8.27-5.615 13.568-5.615s10.094 2.146 13.568 5.615v0l106.656 106.656c3.545 3.486 5.742 8.333 5.742 13.694 0 10.604-8.596 19.2-19.2 19.2-5.353 0-10.194-2.19-13.676-5.724l-74.946-74.946c-12.722 141.307-130.579 251.209-274.11 251.232h-0.002z" />
<glyph unicode="&#xe93a;" glyph-name="18" d="M521.216 736.832c-2.727 1.168-5.9 1.847-9.232 1.847s-6.505-0.679-9.389-1.906l0.157 0.059-56.864-23.712c-39.456-16.448-81.28-26.496-123.904-29.76l-51.84-4.032c-12.424-0.993-22.131-11.313-22.144-23.903v-234.081c0-145.803 118.197-264 264-264s264 118.197 264 264v0 234.080c-0.013 12.591-9.72 22.911-22.060 23.899l-0.084 0.005-51.84 4c-45.499 3.591-87.591 14.194-126.539 30.755l2.635-0.995-56.864 23.744zM464.352 668.8l47.648 19.84 47.68-19.84c44.16-18.4 90.944-29.632 138.656-33.312l29.664-2.304v-211.84c0-119.294-96.706-216-216-216s-216 96.706-216 216v0 211.84l29.696 2.304c50.907 4.026 97.998 15.894 141.572 34.426l-2.948-1.114zM635.648 511.040c4.516 4.37 7.319 10.485 7.319 17.255 0 13.255-10.745 24-24 24-6.778 0-12.9-2.81-17.264-7.328l-129.703-129.703-49.696 49.696c-4.393 4.706-10.634 7.639-17.559 7.639-13.255 0-24-10.745-24-24 0-6.925 2.933-13.165 7.625-17.546l0.014-0.013 66.656-66.688c4.342-4.337 10.338-7.019 16.96-7.019s12.618 2.682 16.96 7.019v0l146.688 146.688z" />
<glyph unicode="&#xe93b;" d="M0 448c0-282.77 229.23-512 512-512s512 229.23 512 512v0c0 282.77-229.23 512-512 512s-512-229.23-512-512v0z" />
<glyph unicode="&#xe93c;" d="M813.227 663.893c11.565-11.579 18.717-27.568 18.717-45.227s-7.152-33.648-18.718-45.227l-341.332-341.332c-11.579-11.565-27.568-18.717-45.227-18.717s-33.648 7.152-45.227 18.718l-170.666 170.666c-10.643 11.398-17.177 26.751-17.177 43.63 0 35.346 28.654 64 64 64 16.879 0 32.232-6.534 43.667-17.211l-0.037 0.034 125.44-125.44 296.107 296.107c11.579 11.565 27.568 18.717 45.227 18.717s33.648-7.152 45.227-18.718l-0.001 0.001z" />
<glyph unicode="&#xe93d;" glyph-name="25" d="M231.030 728.97c9.372 9.373 24.568 9.373 33.941 0l533.332-533.332c9.373-9.373 9.373-24.57 0-33.942s-24.566-9.373-33.939 0l-112.227 112.227c-38.57-22.906-84.65-39.258-137.469-39.258-94.083 0-166.57 51.725-214.162 100.589-23.984 24.624-42.302 49.165-54.631 67.539-6.179 9.21-10.892 16.928-14.097 22.41-1.603 2.742-2.831 4.931-3.678 6.47-0.424 0.771-0.752 1.382-0.985 1.818l-0.278 0.522-0.085 0.163-0.029 0.054c-0.005 0.010-0.020 0.038 21.278 11.104l-21.292 11.075 0.024 0.045 0.045 0.086 0.141 0.269 0.479 0.893c0.406 0.755 0.988 1.818 1.742 3.162 1.509 2.688 3.712 6.502 6.597 11.216 5.764 9.414 14.278 22.474 25.438 37.315 18.122 24.102 43.592 53.414 76.014 79.475l-106.16 106.159c-9.373 9.373-9.373 24.569 0 33.941zM226.709 456.409c-3.603-6.938-3.609-15.203-0.006-22.141l21.298 11.066c-21.298 11.062-21.295 11.069-21.292 11.075zM569.26 356.8l47.645-47.645c-30.166-16.064-64.314-26.49-102.237-26.49-75.616 0-136.464 41.61-179.779 86.080-21.469 22.045-38 44.17-49.156 60.794-4.123 6.144-7.49 11.507-10.082 15.795l1.027 1.686c5.1 8.336 12.764 20.096 22.863 33.53 17.38 23.114 41.559 50.618 71.818 74.15l54.778-54.778c-9.802-15.866-15.469-34.579-15.469-54.592 0-57.44 46.56-104 104-104 20.010 0 38.723 5.667 54.592 15.469zM533.494 392.566l-71.59 71.59c-2.096-5.882-3.235-12.218-3.235-18.826 0-30.928 25.072-56 56-56 6.611 0 12.944 1.139 18.826 3.235zM514.668 608c-8.154 0-16.112-0.48-23.875-1.389-13.165-1.542-25.088 7.882-26.63 21.046-1.539 13.165 7.885 25.086 21.050 26.628 9.587 1.123 19.411 1.715 29.456 1.715 94.080 0 166.566-51.725 214.16-100.586 23.984-24.624 42.304-49.168 54.634-67.542 6.179-9.206 10.893-16.925 14.096-22.406 1.603-2.746 2.829-4.931 3.677-6.474 0.426-0.771 0.752-1.379 0.986-1.814l0.278-0.525 0.083-0.16 0.032-0.058c0.003-0.010 0.016-0.038-21.28-11.101l21.296-11.072-0.038-0.070-0.067-0.131-0.218-0.413c-0.182-0.339-0.438-0.816-0.765-1.414-0.656-1.2-1.6-2.899-2.829-5.040-2.461-4.278-6.074-10.323-10.806-17.648-9.45-14.624-23.459-34.47-41.808-55.536-8.707-9.994-23.866-11.040-33.862-2.333-9.994 8.707-11.037 23.866-2.333 33.862 16.538 18.982 29.194 36.915 37.69 50.061 2.362 3.651 4.394 6.925 6.093 9.734-2.592 4.288-5.962 9.648-10.083 15.792-11.155 16.627-27.686 38.752-49.158 60.794-43.315 44.47-104.16 86.080-179.776 86.080zM802.63 434.262c3.603 6.938 3.606 15.2 0.003 22.134l-21.299-11.062c21.299-11.066 21.296-11.069 21.296-11.072z" />
<glyph unicode="&#xe93e;" glyph-name="19" d="M221.344 448c0 160.525 130.131 290.656 290.656 290.656s290.656-130.131 290.656-290.656c0-160.525-130.131-290.656-290.656-290.656v0h-237.248c-32.096 0-49.248 37.792-28.096 61.92l39.776 45.408c-40.525 49.432-65.088 113.306-65.088 182.917 0 0.145 0 0.289 0 0.434v-0.022zM512 690.656c0 0-0.001 0-0.002 0-134.015 0-242.656-108.641-242.656-242.656 0-64.669 25.297-123.429 66.535-166.924l-0.102 0.108c4.076-4.293 6.582-10.109 6.582-16.511 0-6.068-2.252-11.61-5.965-15.836l0.023 0.027-38.144-43.52h213.728c134.015 0 242.656 108.641 242.656 242.656s-108.641 242.656-242.656 242.656v0zM354.656 528c0 13.255 10.745 24 24 24v0h266.688c13.255 0 24-10.745 24-24s-10.745-24-24-24v0h-266.688c-13.255 0-24 10.745-24 24v0zM378.656 445.344c-13.255 0-24-10.745-24-24s10.745-24 24-24v0h106.688c13.255 0 24 10.745 24 24s-10.745 24-24 24v0h-106.688z" />
</font>
</defs>
</svg>
