<?xml version="1.0" encoding="UTF-8"?>
<svg width="32px" height="32px" viewBox="0 0 32 32" version="1.1" xmlns="http://www.w3.org/2000/svg" xmlns:xlink="http://www.w3.org/1999/xlink">
    <title>图片</title>
    <g id="页面-1" stroke="none" stroke-width="1" fill="none" fill-rule="evenodd">
        <g id="图片" fill="#FFFFFF">
            <path d="M22.0833,8 C23.418,8 24.5,9.08198 24.5,10.4167 L24.5,22.0833 C24.5,23.418 23.418,24.5 22.0833,24.5 L10.4167,24.5 C9.08198,24.5 8,23.418 8,22.0833 L8,10.4167 C8,9.08198 9.08198,8 10.4167,8 L22.0833,8 Z M19.5833,15.644 L12.2273,23 L22.0833,23 C22.5534357,23 22.9408821,22.6461347 22.993833,22.1902104 L23,22.0833 L23,19.0607 L19.5833,15.644 Z M22.0833,9.5 L10.4167,9.5 C9.91041,9.5 9.5,9.91041 9.5,10.4167 L9.5,22.0833 C9.5,22.4955 9.77207,22.8442 10.14643,22.9595 L19.053,14.053 C19.3459,13.7601 19.8207,13.7601 20.1136,14.053 L23,16.9394 L23,10.4167 C23,9.91041 22.5896,9.5 22.0833,9.5 Z M13.3334,11.3333 C14.4379,11.3333 15.3334,12.2287 15.3334,13.3333 C15.3334,14.4379 14.4379,15.3333 13.3334,15.3333 C12.2288,15.3333 11.3334,14.4379 11.3334,13.3333 C11.3334,12.2287 12.2288,11.3333 13.3334,11.3333 Z M13.3334,12.8333 C13.0572,12.8333 12.8334,13.0572 12.8334,13.3333 C12.8334,13.6095 13.0572,13.8333 13.3334,13.8333 C13.6095,13.8333 13.8334,13.6095 13.8334,13.3333 C13.8334,13.0572 13.6095,12.8333 13.3334,12.8333 Z" id="形状"></path>
        </g>
    </g>
</svg>