<?xml version="1.0" encoding="UTF-8"?>
<svg width="32px" height="32px" viewBox="0 0 32 32" version="1.1" xmlns="http://www.w3.org/2000/svg" xmlns:xlink="http://www.w3.org/1999/xlink">
    <title>个人昵称</title>
    <g id="页面-1" stroke="none" stroke-width="1" fill="none" fill-rule="evenodd">
        <g id="个人昵称" fill="#FFFFFF">
            <path d="M7,8.58333 C7,7.70888 7.70888,7 8.58333,7 L18.58331,7 C19.45781,7 20.16671,7.70889 20.16671,8.58333 L20.16671,10.33337 L23.58331,10.33337 C24.45781,10.33337 25.16671,11.04227 25.16671,11.91667 L25.16671,18.58337 C25.16671,22.21927 22.21921,25.16667 18.58331,25.16667 C16.11201,25.16667 13.95871,23.80497 12.83291,21.79097 C9.55007,21.41817 7,18.63217 7,15.24997 L7,8.58333 Z M18.66671,8.58333 L18.66671,10.33337 L13.58331,10.33337 C12.70891,10.33337 12.00001,11.04227 12.00001,11.91667 L12.00001,18.58337 C12.00001,19.11917 12.06401,19.63997 12.18481,20.13867 C10.05761,19.53127 8.5,17.57227 8.5,15.24997 L8.5,8.58333 C8.5,8.53731 8.53731,8.5 8.58333,8.5 L18.58331,8.5 C18.62931,8.5 18.66671,8.5373 18.66671,8.58333 Z M13.58331,11.83337 C13.53731,11.83337 13.50001,11.87067 13.50001,11.91667 L13.50001,18.58337 C13.50001,21.39087 15.77591,23.66667 18.58331,23.66667 C21.39081,23.66667 23.66671,21.39087 23.66671,18.58337 L23.66671,11.91667 C23.66671,11.87067 23.62931,11.83337 23.58331,11.83337 L13.58331,11.83337 Z M16.61361,14.71977 C16.32071,14.42687 15.84591,14.42687 15.55301,14.71977 C15.26011,15.01257 15.26011,15.48747 15.55301,15.78037 L15.56641,15.79377 C15.85931,16.08667 16.33421,16.08667 16.62701,15.79377 C16.91991,15.50087 16.91991,15.02607 16.62701,14.73317 L16.61361,14.71977 Z M20.55301,14.71977 C20.84591,14.42687 21.32071,14.42687 21.61361,14.71977 L21.62701,14.73317 C21.91991,15.02607 21.91991,15.50087 21.62701,15.79377 C21.33421,16.08667 20.85931,16.08667 20.56641,15.79377 L20.55301,15.78037 C20.26011,15.48747 20.26011,15.01257 20.55301,14.71977 Z M17.23341,19.69727 C16.96941,19.37807 16.49671,19.33327 16.17751,19.59717 C15.85821,19.86117 15.81351,20.33387 16.07741,20.65317 C16.67241,21.37257 17.57431,21.83317 18.58321,21.83317 C19.54571,21.83317 20.41141,21.41377 21.00551,20.74997 C21.28171,20.44137 21.25541,19.96717 20.94671,19.69097 C20.63811,19.41477 20.16391,19.44107 19.88771,19.74967 C19.56621,20.10887 19.10141,20.33317 18.58321,20.33317 C18.04031,20.33317 17.55561,20.08697 17.23341,19.69727 Z" id="形状"></path>
        </g>
    </g>
</svg>