<?xml version="1.0" encoding="UTF-8"?>
<svg width="32px" height="32px" viewBox="0 0 32 32" version="1.1" xmlns="http://www.w3.org/2000/svg" xmlns:xlink="http://www.w3.org/1999/xlink">
    <title>删除</title>
    <g id="页面-1" stroke="none" stroke-width="1" fill="none" fill-rule="evenodd">
        <g id="删除" fill="#FFFFFF">
            <path d="M14.5833,8.5 C14.0771,8.5 13.6667,8.9104 13.6667,9.41666 L13.6667,10.33337 L18.8333,10.33337 L18.8333,9.41666 C18.8333,8.91039 18.4229,8.5 17.9167,8.5 L14.5833,8.5 Z M20.3333,10.33337 L20.3333,9.41666 C20.3333,8.08198 19.2514,7 17.9167,7 L14.5833,7 C13.2486,7 12.1667,8.08197 12.1667,9.41666 L12.1667,10.33337 L8.75,10.33337 C8.33579,10.33337 8,10.66907 8,11.08337 C8,11.49757 8.33579,11.83337 8.75,11.83337 L9.66667,11.83337 L9.66667,22.74997 C9.66667,24.08467 10.7487,25.16667 12.0833,25.16667 L20.4167,25.16667 C21.7514,25.16667 22.8333,24.08467 22.8333,22.74997 L22.8333,11.83337 L23.75,11.83337 C24.1642,11.83337 24.5,11.49757 24.5,11.08337 C24.5,10.66907 24.1642,10.33337 23.75,10.33337 L20.3333,10.33337 Z M11.1667,11.83337 L11.1667,22.74997 C11.1667,23.25627 11.5771,23.66667 12.0833,23.66667 L20.4167,23.66667 C20.923,23.66667 21.3333,23.25627 21.3333,22.74997 L21.3333,11.83337 L11.1667,11.83337 Z M17.9166,14.50007 C18.3308,14.50007 18.6666,14.83587 18.6666,15.25007 L18.6666,20.25007 C18.6666,20.66427 18.3308,21.00007 17.9166,21.00007 C17.5024,21.00007 17.1666,20.66427 17.1666,20.25007 L17.1666,15.25007 C17.1666,14.83587 17.5024,14.50007 17.9166,14.50007 Z M15.3334,15.25007 C15.3334,14.83587 14.9976,14.50007 14.5834,14.50007 C14.1692,14.50007 13.8334,14.83587 13.8334,15.25007 L13.8334,20.25007 C13.8334,20.66427 14.1692,21.00007 14.5834,21.00007 C14.9976,21.00007 15.3334,20.66427 15.3334,20.25007 L15.3334,15.25007 Z" id="形状"></path>
        </g>
    </g>
</svg>