<?xml version="1.0" encoding="UTF-8"?>
<svg width="32px" height="32px" viewBox="0 0 32 32" version="1.1" xmlns="http://www.w3.org/2000/svg" xmlns:xlink="http://www.w3.org/1999/xlink">
    <title>密码或锁定</title>
    <g id="页面-1" stroke="none" stroke-width="1" fill="none" fill-rule="evenodd">
        <g id="密码或锁定" fill="#FFFFFF">
            <path d="M12.8333,11.91667 C12.8333,10.02969 14.363,8.5 16.25,8.5 C18.1369,8.5 19.6666,10.02969 19.6666,11.91667 L19.6666,14.49997 L12.8333,14.49997 L12.8333,11.91667 Z M12.0783,15.99997 C12.08,15.99997 12.0817,15.99997 12.0833,15.99997 C12.085,15.99997 12.0866,15.99997 12.0883,15.99997 L20.4117,15.99997 C20.4133,15.99997 20.415,15.99997 20.4166,15.99997 C20.4183,15.99997 20.42,15.99997 20.4216,15.99997 L22.0833,15.99997 C22.5896,15.99997 23,16.41037 23,16.91667 L23,22.74997 C23,23.25627 22.5896,23.66667 22.0833,23.66667 L10.4167,23.66667 C9.91041,23.66667 9.5,23.25627 9.5,22.74997 L9.5,16.91667 C9.5,16.41037 9.91041,15.99997 10.4167,15.99997 L12.0783,15.99997 Z M11.3333,14.49997 L11.3333,11.91667 C11.3333,9.20126 13.5346,7 16.25,7 C18.9654,7 21.1666,9.20125 21.1666,11.91667 L21.1666,14.49997 L22.0833,14.49997 C23.418,14.49997 24.5,15.58197 24.5,16.91667 L24.5,22.74997 C24.5,24.08467 23.418,25.16667 22.0833,25.16667 L10.4167,25.16667 C9.08198,25.16667 8,24.08467 8,22.74997 L8,16.91667 C8,15.58197 9.08198,14.49997 10.4167,14.49997 L11.3333,14.49997 Z" id="形状"></path>
        </g>
    </g>
</svg>