<?xml version="1.0" encoding="UTF-8"?>
<svg width="32px" height="32px" viewBox="0 0 32 32" version="1.1" xmlns="http://www.w3.org/2000/svg" xmlns:xlink="http://www.w3.org/1999/xlink">
    <title>恢复图像</title>
    <g id="页面-1" stroke="none" stroke-width="1" fill="none" fill-rule="evenodd">
        <g id="恢复图像" fill="#FFFFFF">
            <path d="M23.8869225,8.6841325 C21.6414225,6.4386225 18.0007225,6.4386225 15.7552225,8.6841325 L15.0538225,9.3855025 L15.0480225,9.3912125 L15.0423225,9.3969925 L9.3969825,15.0423225 C9.3950425,15.0442225 9.3931225,15.0461225 9.3912025,15.0481225 C9.3892825,15.0500225 9.3873725,15.0519225 9.3854825,15.0538225 L8.6841325,15.7552225 C6.4386225,18.0007225 6.4386225,21.6414225 8.6841325,23.8869225 C10.9296225,26.1324225 14.5703225,26.1324225 16.8158225,23.8869225 L23.8869225,16.8158225 C26.1324225,14.5703225 26.1324225,10.9296225 23.8869225,8.6841325 Z M9.9215625,16.6391225 L9.7447925,16.8158225 C8.0850725,18.4756225 8.0850725,21.1665225 9.7447925,22.8262225 C11.4045225,24.4860225 14.0955225,24.4860225 15.7552225,22.8262225 L15.9319225,22.6495225 L9.9215625,16.6391225 Z M16.9926225,21.5888225 L21.5888225,16.9926225 L15.5784225,10.9822225 L13.8107225,12.7500225 L15.4017225,14.3409225 C15.6945225,14.6338225 15.6945225,15.1087225 15.4017225,15.4016225 C15.1088225,15.6945225 14.6339225,15.6945225 14.3410225,15.4016225 L12.7500225,13.8106225 L10.9822225,15.5784225 L16.9926225,21.5888225 Z M22.6495225,15.9320225 L22.8262225,15.7552225 C24.4860225,14.0955225 24.4860225,11.4045225 22.8262225,9.7447925 C21.1665225,8.0850725 18.4756225,8.0850725 16.8158225,9.7447925 L16.6391225,9.9215725 L22.6495225,15.9320225 Z" id="形状"></path>
        </g>
    </g>
</svg>