<?xml version="1.0" encoding="UTF-8"?>
<svg width="32px" height="32px" viewBox="0 0 32 32" version="1.1" xmlns="http://www.w3.org/2000/svg" xmlns:xlink="http://www.w3.org/1999/xlink">
    <title>擦除</title>
    <g id="页面-1" stroke="none" stroke-width="1" fill="none" fill-rule="evenodd">
        <g id="擦除" fill="#FFFFFF">
            <path d="M10.75,7 C9.7835,7 9,7.7835 9,8.75 L9,23.75 C9,24.7165 9.7835,25.5 10.75,25.5 L21.75,25.5 C22.7165,25.5 23.5,24.7165 23.5,23.75 L23.5,11.75 C23.5,9.12665 21.3734,7 18.75,7 L10.75,7 Z M22,12.5 L22,11.75 C22,9.95507 20.5449,8.5 18.75,8.5 L10.75,8.5 C10.6119,8.5 10.5,8.61193 10.5,8.75 L10.5,12.5 L22,12.5 Z M10.5,14 L22,14 L22,23.75 C22,23.8881 21.8881,24 21.75,24 L10.75,24 C10.6119,24 10.5,23.8881 10.5,23.75 L10.5,14 Z" id="形状"></path>
        </g>
    </g>
</svg>