<?xml version="1.0" encoding="UTF-8"?>
<svg width="32px" height="32px" viewBox="0 0 32 32" version="1.1" xmlns="http://www.w3.org/2000/svg" xmlns:xlink="http://www.w3.org/1999/xlink">
    <title>解锁</title>
    <g id="页面-1" stroke="none" stroke-width="1" fill="none" fill-rule="evenodd">
        <g id="解锁" fill="#FFFFFF">
            <path d="M16.25,7 C13.5346,7 11.3333,9.20127 11.3333,11.91667 L11.3333,14.49997 L10.4167,14.49997 C9.08198,14.49997 8,15.58197 8,16.91667 L8,22.74997 C8,24.08467 9.08198,25.16667 10.4167,25.16667 L22.0833,25.16667 C23.418,25.16667 24.5,24.08467 24.5,22.74997 L24.5,16.91667 C24.5,15.58197 23.418,14.49997 22.0833,14.49997 L12.8333,14.49997 L12.8333,11.91667 C12.8333,10.02969 14.363,8.5 16.25,8.5 C17.694,8.5 18.9306,9.3961 19.4304,10.66527 C19.5822,11.05067 20.0176,11.24007 20.4031,11.08827 C20.7885,10.93647 20.9778,10.50097 20.8261,10.11557 C20.108,8.2924 18.3308,7 16.25,7 Z M12.0833,15.99997 L10.4167,15.99997 C9.91041,15.99997 9.5,16.41037 9.5,16.91667 L9.5,22.74997 C9.5,23.25627 9.91041,23.66667 10.4167,23.66667 L22.0833,23.66667 C22.5896,23.66667 23,23.25627 23,22.74997 L23,16.91667 C23,16.41037 22.5896,15.99997 22.0833,15.99997 L12.0833,15.99997 Z" id="形状"></path>
        </g>
    </g>
</svg>