<?xml version="1.0" encoding="UTF-8"?>
<svg width="32px" height="32px" viewBox="0 0 32 32" version="1.1" xmlns="http://www.w3.org/2000/svg" xmlns:xlink="http://www.w3.org/1999/xlink">
    <title>隐藏</title>
    <g id="页面-1" stroke="none" stroke-width="1" fill="none" fill-rule="evenodd">
        <g id="隐藏" fill="#FFFFFF">
            <path d="M7.219675,7.219675 C7.512565,6.926775 7.987435,6.926775 8.280335,7.219675 L24.946975,23.886315 C25.239875,24.179215 25.239875,24.654115 24.946975,24.947015 C24.654075,25.239915 24.179275,25.239915 23.886375,24.947015 L20.379275,21.439915 C19.173975,22.155715 17.733975,22.666715 16.083375,22.666715 C13.143275,22.666715 10.878075,21.050315 9.390805,19.523315 C8.641295,18.753815 8.068865,17.986915 7.683585,17.412715 C7.490495,17.124915 7.343195,16.883715 7.243065,16.712415 C7.192975,16.626715 7.154605,16.558315 7.128135,16.510215 C7.114895,16.486115 7.104625,16.467015 7.097345,16.453415 L7.088665,16.437115 L7.086005,16.432015 L7.085105,16.430315 C7.084955,16.430015 7.084475,16.429115 7.750035,16.083315 L7.084655,15.737215 L7.085395,15.735815 L7.086815,15.733115 L7.091215,15.724715 L7.106185,15.696815 C7.118885,15.673215 7.137055,15.640015 7.160635,15.598015 C7.207785,15.514015 7.276645,15.394815 7.366785,15.247515 C7.546895,14.953315 7.812985,14.545215 8.161735,14.081415 C8.728035,13.328215 9.523975,12.412215 10.537175,11.597815 L7.219675,8.280335 C6.926775,7.987435 6.926775,7.512565 7.219675,7.219675 Z M7.084655,15.737215 C6.972065,15.954015 6.971885,16.212315 7.084475,16.429115 L7.750035,16.083315 C7.084475,15.737615 7.084565,15.737415 7.084655,15.737215 Z M17.789375,18.850015 L19.278275,20.338915 C18.335575,20.840915 17.268475,21.166715 16.083375,21.166715 C13.720375,21.166715 11.818875,19.866415 10.465275,18.476715 C9.794375,17.787815 9.277785,17.096415 8.929165,16.576915 C8.800325,16.384915 8.695095,16.217315 8.614105,16.083315 L8.646195,16.030615 C8.805585,15.770115 9.045075,15.402615 9.360655,14.982815 C9.903775,14.260515 10.659375,13.401015 11.604975,12.665615 L13.316775,14.377415 C13.010475,14.873215 12.833375,15.458015 12.833375,16.083415 C12.833375,17.878415 14.288375,19.333415 16.083375,19.333415 C16.708675,19.333415 17.293475,19.156315 17.789375,18.850015 Z M16.671675,17.732315 L14.434475,15.495115 C14.368975,15.678915 14.333375,15.876915 14.333375,16.083415 C14.333375,17.049915 15.116875,17.833415 16.083375,17.833415 C16.289975,17.833415 16.487875,17.797815 16.671675,17.732315 Z M16.083375,11.000015 C15.828575,11.000015 15.579875,11.015015 15.337275,11.043415 C14.925875,11.091615 14.553275,10.797115 14.505075,10.385715 C14.456975,9.974315 14.751475,9.601765 15.162875,9.553605 C15.462475,9.518525 15.769475,9.500005 16.083375,9.500005 C19.023375,9.500005 21.288575,11.116415 22.775875,12.643315 C23.525375,13.412815 24.097875,14.179815 24.483175,14.754015 C24.676275,15.041715 24.823575,15.282915 24.923675,15.454215 C24.973775,15.540015 25.012075,15.608315 25.038575,15.656515 C25.051875,15.680615 25.062075,15.699615 25.069375,15.713215 L25.078075,15.729615 L25.080675,15.734615 L25.081675,15.736415 C25.081775,15.736715 25.082175,15.737615 24.416675,16.083315 L25.082175,16.429315 L25.080975,16.431515 L25.078875,16.435615 L25.072075,16.448515 C25.066375,16.459115 25.058375,16.474015 25.048175,16.492715 C25.027675,16.530215 24.998175,16.583315 24.959775,16.650215 C24.882875,16.783915 24.769975,16.972815 24.622075,17.201715 C24.326775,17.658715 23.888975,18.278915 23.315575,18.937215 C23.043475,19.249515 22.569775,19.282215 22.257375,19.010115 C21.945075,18.738015 21.912475,18.264315 22.184475,17.951915 C22.701275,17.358715 23.096775,16.798315 23.362275,16.387515 C23.436075,16.273415 23.499575,16.171115 23.552675,16.083315 C23.471675,15.949315 23.366375,15.781815 23.237575,15.589815 C22.888975,15.070215 22.372375,14.378815 21.701375,13.690015 C20.347775,12.300315 18.446375,11.000015 16.083375,11.000015 Z M25.082175,16.429315 C25.194775,16.212515 25.194875,15.954315 25.082275,15.737615 L24.416675,16.083315 C25.082275,16.429115 25.082175,16.429215 25.082175,16.429315 Z" id="形状"></path>
        </g>
    </g>
</svg>